# xmcd
#
# Track frame offsets:
#	150
#	16784
#	31947
#	48656
#	64991
#	83053
#	102820
#	115206
#	129208
#	140897
#	159667
#	180035
#	194490
#	211097
#	224794
#
# Disc length: 3188 seconds
#
# Revision: 1
# Processed by: cddbd v1.5.1PL2 Copyright (c) Steve Scherf et al.
# Submitted via: audiograbber 1.83.01
#
DISCID=d10c720f
DTITLE=Chart Buster Vol 96 - Cb60096
DYEAR=1900
DGENRE=Karaoke
TTITLE0=Steve Wariner - Domino Theory
TTITLE1=Patty Loveless - On Down The Line
TTITLE2=Shenandoah - Ghost In This House
TTITLE3=Pam Tillis - One Of Those Things
TTITLE4=Randy Travis - Hard Rock Bottom Of Your Heart
TTITLE5=Shelby Lynne - I'll Lie Myself To Sleep
TTITLE6=Sawyer Brown - When Love Comes Callin'
TTITLE7=Mary Chapin Carpenter - Something Of A Dreamer
TTITLE8=Ricky Van Shelton - I've Cried My Last Tear For You
TTITLE9=Michelle Wright - New Kind Of Love
TTITLE10=Restless Heart - Dancy's Dream
TTITLE11=Holly Dunn - Maybe I Mean Yes
TTITLE12=Paul Overstreet - Daddy's Come Around
TTITLE13=Baillie And The Boys - Perfect
TTITLE14=T Graham Brown - If You Could Only See Me Now
EXTD=
EXTT0=
EXTT1=
EXTT2=
EXTT3=
EXTT4=
EXTT5=
EXTT6=
EXTT7=
EXTT8=
EXTT9=
EXTT10=
EXTT11=
EXTT12=
EXTT13=
EXTT14=
PLAYORDER=
